<svg width="1600" height="500" viewBox="0 0 1600 500" xmlns="http://www.w3.org/2000/svg" xmlns:xlink="http://www.w3.org/1999/xlink">
<defs>
  <linearGradient id="bgGrad" x1="0%" y1="0%" x2="100%" y2="100%">
    <stop offset="0%" stop-color="#0D1117"/>
    <stop offset="100%" stop-color="#161B22"/>
  </linearGradient>

  <linearGradient id="textGrad" x1="0%" y1="0%" x2="100%" y2="100%">
    <stop offset="0%" stop-color="#58A6FF"/>
    <stop offset="55%" stop-color="#7C3AED"/>
    <stop offset="100%" stop-color="#00E5FF"/>
  </linearGradient>

  <linearGradient id="blueGrad" x1="0%" y1="0%" x2="100%" y2="100%">
    <stop offset="0%" stop-color="#58A6FF"/>
    <stop offset="100%" stop-color="#00E5FF"/>
  </linearGradient>

  <linearGradient id="purpleGrad" x1="0%" y1="0%" x2="100%" y2="100%">
    <stop offset="0%" stop-color="#7C3AED"/>
    <stop offset="100%" stop-color="#FF4D9D"/>
  </linearGradient>

  <radialGradient id="glowBlue" cx="50%" cy="50%" r="50%">
    <stop offset="0%" stop-color="#58A6FF" stop-opacity="0.35"/>
    <stop offset="100%" stop-color="#58A6FF" stop-opacity="0"/>
  </radialGradient>
  <radialGradient id="glowPurple" cx="50%" cy="50%" r="50%">
    <stop offset="0%" stop-color="#7C3AED" stop-opacity="0.30"/>
    <stop offset="100%" stop-color="#7C3AED" stop-opacity="0"/>
  </radialGradient>
  <radialGradient id="glowPink" cx="50%" cy="50%" r="50%">
    <stop offset="0%" stop-color="#FF4D9D" stop-opacity="0.22"/>
    <stop offset="100%" stop-color="#FF4D9D" stop-opacity="0"/>
  </radialGradient>

  <filter id="softGlow" x="-60%" y="-60%" width="220%" height="220%">
    <feGaussianBlur stdDeviation="3.2" result="b"/>
    <feMerge>
      <feMergeNode in="b"/>
      <feMergeNode in="SourceGraphic"/>
    </feMerge>
  </filter>
  <filter id="strongGlow" x="-80%" y="-80%" width="260%" height="260%">
    <feGaussianBlur stdDeviation="7" result="b"/>
    <feMerge>
      <feMergeNode in="b"/>
      <feMergeNode in="SourceGraphic"/>
    </feMerge>
  </filter>

  <pattern id="grid" width="42" height="42" patternUnits="userSpaceOnUse">
    <path d="M42 0H0V42" fill="none" stroke="#58A6FF" stroke-opacity="0.07" stroke-width="1"/>
    <animateTransform attributeName="patternTransform" type="translate" from="0 0" to="42 42" dur="7s" repeatCount="indefinite"/>
  </pattern>

  <clipPath id="canvasClip">
    <rect x="0" y="0" width="1600" height="500" rx="26"/>
  </clipPath>

  <clipPath id="typeClip">
    <rect x="0" y="0" width="0" height="34">
      <animate attributeName="width" values="0;824;824;0;0" keyTimes="0;0.40;0.70;0.85;1" dur="9s" repeatCount="indefinite"/>
    </rect>
  </clipPath>
</defs>

<style>
  text { font-family: -apple-system, "Segoe UI", ui-sans-serif, Helvetica, Arial, sans-serif; }
  .mono { font-family: "SFMono-Regular", ui-monospace, Menlo, Consolas, monospace; }

  @keyframes floatY   { 0%,100% { transform: translateY(0); } 50% { transform: translateY(-10px); } }
  @keyframes floatY2  { 0%,100% { transform: translateY(0); } 50% { transform: translateY(-15px); } }
  @keyframes floatY3  { 0%,100% { transform: translateY(0); } 50% { transform: translateY(-6px); } }
  @keyframes pulseOp  { 0%,100% { opacity: .55; } 50% { opacity: 1; } }
  @keyframes blink    { 0%,49% { opacity: 1; } 50%,100% { opacity: 0; } }
  @keyframes fadeInUp { 0% { opacity: 0; transform: translateY(22px); }
                        12% { opacity: 1; transform: translateY(0); }
                        88% { opacity: 1; transform: translateY(0); }
                        100% { opacity: 0; transform: translateY(22px); } }
  @keyframes fadeIn   { 0% { opacity: 0; } 100% { opacity: 1; } }
  @keyframes ledBlink { 0%,100% { opacity: 1; } 50% { opacity: .15; } }
  @keyframes chipFloat{ 0%,100% { transform: translateY(0); } 50% { transform: translateY(-5px); } }
  @keyframes spinSlow { from { transform: rotate(0deg); } to { transform: rotate(360deg); } }
  @keyframes dashFlow { to { stroke-dashoffset: -240; } }
  @keyframes drift    { 0% { transform: translate(0,0); opacity:0; }
                         15% { opacity: .9; }
                         85% { opacity: .9; }
                         100% { transform: translate(0,-70px); opacity:0; } }

  .float  { animation: floatY 6s ease-in-out infinite; }
  .float2 { animation: floatY2 7.5s ease-in-out infinite; }
  .float3 { animation: floatY3 4.5s ease-in-out infinite; }
  .pulse  { animation: pulseOp 3.2s ease-in-out infinite; }
  .cursor { animation: blink 1s steps(1) infinite; }
  .heading{ animation: fadeInUp 10s ease-in-out infinite; }
  .fade   { opacity: 0; animation: fadeIn 1.4s ease forwards; }
  .led    { animation: ledBlink 2.2s ease-in-out infinite; }
  .spin   { animation: spinSlow 22s linear infinite; transform-box: fill-box; transform-origin: center; }
  .dash   { stroke-dasharray: 7 7; animation: dashFlow 3.5s linear infinite; }
  .particle { animation: drift 6s ease-in-out infinite; }
  .chip   { opacity:0; animation: fadeIn 1s ease forwards, chipFloat 5s ease-in-out infinite; }
</style>

<g clip-path="url(#canvasClip)">
  <!-- Background -->
  <rect x="0" y="0" width="1600" height="500" fill="url(#bgGrad)"/>
  <rect x="0" y="0" width="1600" height="500" fill="url(#grid)"/>

  <!-- Ambient glow blobs -->
  <ellipse cx="230" cy="120" rx="360" ry="220" fill="url(#glowBlue)" class="float2"/>
  <ellipse cx="1300" cy="90" rx="330" ry="220" fill="url(#glowPurple)" class="float"/>
  <ellipse cx="1150" cy="420" rx="300" ry="180" fill="url(#glowPink)" class="float3"/>

  <!-- Digital network lines -->
  <g stroke="url(#blueGrad)" fill="none" opacity="0.35">
    <path class="dash" d="M0,60 C300,20 500,140 820,90 S1300,40 1600,110" stroke-width="1.4"/>
    <path class="dash" d="M0,430 C260,470 520,380 800,420 S1250,460 1600,400" stroke-width="1.4" style="animation-delay:1s"/>
  </g>

  <!-- Floating particles -->
  <g fill="#00E5FF">
    <circle cx="120" cy="380" r="2.4" class="particle" style="animation-delay:0s"/>
    <circle cx="260" cy="330" r="1.8" class="particle" style="animation-delay:1.2s"/>
    <circle cx="60"  cy="200" r="2"   class="particle" style="animation-delay:2.1s"/>
    <circle cx="420" cy="410" r="1.6" class="particle" style="animation-delay:0.6s"/>
    <circle cx="700" cy="440" r="2.2" class="particle" style="animation-delay:1.8s"/>
  </g>
  <g fill="#58A6FF">
    <circle cx="980"  cy="450" r="2"   class="particle" style="animation-delay:0.3s"/>
    <circle cx="1120" cy="410" r="1.8" class="particle" style="animation-delay:1.5s"/>
    <circle cx="1400" cy="440" r="2.3" class="particle" style="animation-delay:2.4s"/>
    <circle cx="1520" cy="120" r="1.7" class="particle" style="animation-delay:0.9s"/>
    <circle cx="1560" cy="300" r="2"   class="particle" style="animation-delay:1.9s"/>
  </g>
  <g fill="#FF4D9D">
    <circle cx="1250" cy="60" r="1.8" class="particle" style="animation-delay:0.5s"/>
    <circle cx="900"  cy="70" r="1.6" class="particle" style="animation-delay:1.4s"/>
  </g>

  <!-- Floating code symbols -->
  <g fill="#58A6FF" opacity="0.18" class="mono" font-weight="600">
    <text x="30"  y="140" font-size="30" class="float2">&lt;/&gt;</text>
    <text x="740" y="60"  font-size="26" class="float" fill="#7C3AED">{ }</text>
    <text x="60"  y="470" font-size="24" class="float3" fill="#00E5FF">λ</text>
    <text x="1580" y="230" font-size="26" class="float" fill="#FF4D9D" text-anchor="end">π</text>
    <text x="820" y="470" font-size="22" class="float2">01</text>
  </g>

  <!-- ============ LEFT TEXT BLOCK ============ -->
  <g>
    <text x="80" y="215" font-size="56" font-weight="800" fill="url(#textGrad)" class="heading">Hi, I'm Dev Saxena</text>

    <g clip-path="url(#typeClip)">
      <text x="80" y="270" font-size="19" font-weight="500" fill="#E6EDF3" class="mono">Full Stack Developer • ML Engineer • RAG • Gen AI • Agentic AI • Product Thinker</text>
    </g>
    <rect x="904" y="252" width="3" height="22" fill="#00E5FF" class="cursor"/>

    <text x="80" y="320" font-size="15" fill="#8B949E" class="mono fade" style="animation-delay:1.6s">$ building intelligent systems, one commit at a time_</text>
  </g>

  <!-- ============ RIGHT ILLUSTRATION ============ -->
  <g transform="translate(1010,55)">

    <!-- glass backdrop -->
    <rect x="0" y="0" width="560" height="390" rx="26" fill="#FFFFFF" fill-opacity="0.025" stroke="#58A6FF" stroke-opacity="0.15"/>

    <!-- Terminal window -->
    <g class="float" style="animation-delay:0.2s">
      <rect x="24" y="24" width="200" height="118" rx="10" fill="#0D1117" stroke="#30363D"/>
      <rect x="24" y="24" width="200" height="24" rx="10" fill="#161B22"/>
      <circle cx="40" cy="36" r="4" fill="#FF4D9D"/>
      <circle cx="54" cy="36" r="4" fill="#3FB950"/>
      <circle cx="68" cy="36" r="4" fill="#58A6FF"/>
      <text x="36" y="72"  font-size="11" fill="#3FB950" class="mono">$ npm run deploy</text>
      <text x="36" y="90"  font-size="11" fill="#58A6FF" class="mono">✓ build successful</text>
      <text x="36" y="108" font-size="11" fill="#7C3AED" class="mono">$ model.predict(x)</text>
      <text x="36" y="126" font-size="11" fill="#E6EDF3" class="mono">$ <tspan class="cursor">▌</tspan></text>
    </g>

    <!-- Git branch graph -->
    <g transform="translate(250,20)">
      <g stroke="#3FB950" stroke-width="2" fill="none" class="float3" style="animation-delay:0.5s">
        <path d="M10,0 L10,90"/>
        <path d="M10,35 C10,55 60,45 60,65 L60,90"/>
        <circle cx="10" cy="10" r="5" fill="#3FB950" stroke="none"/>
        <circle cx="10" cy="50" r="5" fill="#3FB950" stroke="none"/>
        <circle cx="10" cy="90" r="5" fill="#58A6FF" stroke="none"/>
        <circle cx="60" cy="65" r="5" fill="#7C3AED" stroke="none"/>
        <circle cx="60" cy="90" r="5" fill="#7C3AED" stroke="none"/>
        <circle r="3.5" fill="#00E5FF" stroke="none">
          <animateMotion dur="3.2s" repeatCount="indefinite" path="M10,0 L10,90"/>
        </circle>
      </g>
    </g>

    <!-- AI brain node -->
    <g transform="translate(430,95)">
      <circle r="42" fill="url(#purpleGrad)" opacity="0.85" filter="url(#strongGlow)" class="pulse"/>
      <path d="M-16,-10 C-16,-22 16,-22 16,-10 C24,-8 24,10 14,14 C14,24 -14,24 -14,14 C-24,10 -24,-8 -16,-10 Z"
            fill="none" stroke="#E6EDF3" stroke-width="1.6" opacity="0.85"/>
      <path d="M-6,-14 L-6,14 M6,-14 L6,14 M-14,0 L14,0" stroke="#E6EDF3" stroke-width="1" opacity="0.5"/>
      <g class="spin">
        <circle cx="0" cy="-72" r="4" fill="#00E5FF"/>
        <circle cx="62" cy="36" r="4" fill="#58A6FF"/>
        <circle cx="-62" cy="36" r="4" fill="#FF4D9D"/>
        <circle cx="0" cy="72" r="3" fill="#3FB950"/>
        <line x1="0" y1="-72" x2="0" y2="-46" stroke="#00E5FF" stroke-opacity="0.4"/>
        <line x1="62" y1="36" x2="36" y2="20" stroke="#58A6FF" stroke-opacity="0.4"/>
        <line x1="-62" y1="36" x2="-36" y2="20" stroke="#FF4D9D" stroke-opacity="0.4"/>
        <line x1="0" y1="72" x2="0" y2="46" stroke="#3FB950" stroke-opacity="0.4"/>
      </g>
    </g>

    <!-- Neural network cluster -->
    <g transform="translate(360,215)" stroke="#58A6FF" stroke-opacity="0.5" fill="#00E5FF">
      <line x1="0" y1="10" x2="45" y2="0" class="dash"/>
      <line x1="0" y1="10" x2="40" y2="45" class="dash" style="animation-delay:0.4s"/>
      <line x1="45" y1="0" x2="90" y2="20" class="dash" style="animation-delay:0.8s"/>
      <line x1="40" y1="45" x2="90" y2="20" class="dash" style="animation-delay:1.2s"/>
      <circle cx="0" cy="10" r="5" class="pulse"/>
      <circle cx="45" cy="0" r="5" class="pulse" style="animation-delay:0.5s" fill="#58A6FF"/>
      <circle cx="40" cy="45" r="5" class="pulse" style="animation-delay:1s" fill="#7C3AED"/>
      <circle cx="90" cy="20" r="5" class="pulse" style="animation-delay:1.5s" fill="#FF4D9D"/>
    </g>

    <!-- Database cylinder -->
    <g transform="translate(20,230)">
      <g class="float2" style="animation-delay:0.3s">
        <ellipse cx="35" cy="10" rx="35" ry="12" fill="url(#blueGrad)" opacity="0.9"/>
        <rect x="0" y="10" width="70" height="46" fill="#161B22" stroke="#58A6FF" stroke-opacity="0.5"/>
        <ellipse cx="35" cy="56" rx="35" ry="12" fill="#161B22" stroke="#58A6FF" stroke-opacity="0.5"/>
        <ellipse cx="35" cy="30" rx="35" ry="10" fill="none" stroke="#00E5FF" stroke-opacity="0.4"/>
      </g>
    </g>

    <!-- Cloud -->
    <g transform="translate(140,240)">
      <g class="float3" style="animation-delay:0.7s">
        <path d="M20,40 a20,20 0 0,1 0,-40 a24,24 0 0,1 46,4 a18,18 0 0,1 -4,36 Z"
              fill="#E6EDF3" opacity="0.08" stroke="#58A6FF" stroke-opacity="0.4"/>
      </g>
    </g>

    <!-- Server rack -->
    <g transform="translate(400,300)">
      <g class="float" style="animation-delay:0.9s">
        <rect x="0" y="0" width="110" height="70" rx="8" fill="#161B22" stroke="#30363D"/>
        <rect x="10" y="10" width="90" height="14" rx="3" fill="#0D1117"/>
        <rect x="10" y="30" width="90" height="14" rx="3" fill="#0D1117"/>
        <rect x="10" y="50" width="90" height="14" rx="3" fill="#0D1117"/>
        <circle cx="20" cy="17" r="3" fill="#3FB950" class="led"/>
        <circle cx="20" cy="37" r="3" fill="#58A6FF" class="led" style="animation-delay:0.4s"/>
        <circle cx="20" cy="57" r="3" fill="#FF4D9D" class="led" style="animation-delay:0.8s"/>
      </g>
    </g>

    <!-- Laptop -->
    <g transform="translate(140,180)">
      <g class="float2" style="animation-delay:0.1s">
        <path d="M-10,140 H210 L196,156 H4 Z" fill="#21262D" stroke="#30363D"/>
        <rect x="0" y="10" width="200" height="130" rx="8" fill="#161B22" stroke="#30363D" stroke-width="2"/>
        <rect x="10" y="20" width="180" height="110" rx="4" fill="#0D1117"/>
        <rect x="20" y="30" width="90" height="8" rx="2" fill="#58A6FF" opacity="0.8"/>
        <rect x="20" y="46" width="130" height="6" rx="2" fill="#7C3AED" opacity="0.7"/>
        <rect x="20" y="60" width="70" height="6" rx="2" fill="#00E5FF" opacity="0.7"/>
        <rect x="20" y="74" width="110" height="6" rx="2" fill="#3FB950" opacity="0.6"/>
        <rect x="20" y="88" width="60" height="6" rx="2" fill="#FF4D9D" opacity="0.6"/>
        <rect x="20" y="104" width="30" height="14" rx="3" fill="#58A6FF" opacity="0.15" stroke="#58A6FF" stroke-opacity="0.5"/>
        <text x="24" y="114" font-size="9" fill="#00E5FF" class="mono">build ✓</text>
      </g>
    </g>

    <!-- API connections -->
    <g stroke="#00E5FF" stroke-opacity="0.4" fill="none">
      <path class="dash" d="M240,250 C300,270 340,270 360,250" stroke-width="1.3"/>
      <path class="dash" d="M340,230 C380,180 400,140 410,110" stroke-width="1.3" style="animation-delay:0.6s"/>
      <path class="dash" d="M175,240 C230,300 320,320 400,320" stroke-width="1.3" style="animation-delay:1.1s"/>
    </g>

    <!-- small floating tech glyphs -->
    <g class="mono" font-weight="600" opacity="0.6">
      <text x="300" y="140" font-size="16" fill="#58A6FF" class="float">AI</text>
      <text x="490" y="180" font-size="16" fill="#7C3AED" class="float3">λ</text>
      <text x="150" y="10"  font-size="16" fill="#00E5FF" class="float2">{ }</text>
    </g>
  </g>

  <!-- ============ TECH CHIPS ============ -->
  <!-- NOTE: each chip is POSITION group > ANIMATION group > shapes.
       CSS "transform" animations REPLACE an element's transform attribute rather than
       composing with it, so position and animation must live on separate nested <g>s. -->
  <g font-size="14" font-weight="600" text-anchor="middle" class="mono">
    <!-- Row 1 -->
    <g transform="translate(233,400)">
      <g transform="translate(0,0)"><g class="chip" style="animation-delay:0.1s">
        <rect width="70" height="28" rx="14" fill="#58A6FF" fill-opacity="0.10" stroke="#58A6FF" stroke-opacity="0.55" filter="url(#softGlow)"/>
        <text x="35" y="19" fill="#E6EDF3">React</text>
      </g></g>
      <g transform="translate(84,0)"><g class="chip" style="animation-delay:0.2s">
        <rect width="86" height="28" rx="14" fill="#7C3AED" fill-opacity="0.10" stroke="#7C3AED" stroke-opacity="0.55" filter="url(#softGlow)"/>
        <text x="43" y="19" fill="#E6EDF3">Next.js</text>
      </g></g>
      <g transform="translate(184,0)"><g class="chip" style="animation-delay:0.3s">
        <rect width="86" height="28" rx="14" fill="#3FB950" fill-opacity="0.10" stroke="#3FB950" stroke-opacity="0.55" filter="url(#softGlow)"/>
        <text x="43" y="19" fill="#E6EDF3">Node.js</text>
      </g></g>
      <g transform="translate(284,0)"><g class="chip" style="animation-delay:0.4s">
        <rect width="86" height="28" rx="14" fill="#00E5FF" fill-opacity="0.10" stroke="#00E5FF" stroke-opacity="0.55" filter="url(#softGlow)"/>
        <text x="43" y="19" fill="#E6EDF3">Express</text>
      </g></g>
      <g transform="translate(384,0)"><g class="chip" style="animation-delay:0.5s">
        <rect width="86" height="28" rx="14" fill="#3FB950" fill-opacity="0.10" stroke="#3FB950" stroke-opacity="0.55" filter="url(#softGlow)"/>
        <text x="43" y="19" fill="#E6EDF3">MongoDB</text>
      </g></g>
      <g transform="translate(484,0)"><g class="chip" style="animation-delay:0.6s">
        <rect width="110" height="28" rx="14" fill="#58A6FF" fill-opacity="0.10" stroke="#58A6FF" stroke-opacity="0.55" filter="url(#softGlow)"/>
        <text x="55" y="19" fill="#E6EDF3">PostgreSQL</text>
      </g></g>
      <g transform="translate(608,0)"><g class="chip" style="animation-delay:0.7s">
        <rect width="110" height="28" rx="14" fill="#58A6FF" fill-opacity="0.10" stroke="#58A6FF" stroke-opacity="0.55" filter="url(#softGlow)"/>
        <text x="55" y="19" fill="#E6EDF3">TypeScript</text>
      </g></g>
      <g transform="translate(732,0)"><g class="chip" style="animation-delay:0.8s">
        <rect width="78" height="28" rx="14" fill="#00E5FF" fill-opacity="0.10" stroke="#00E5FF" stroke-opacity="0.55" filter="url(#softGlow)"/>
        <text x="39" y="19" fill="#E6EDF3">Python</text>
      </g></g>
      <g transform="translate(824,0)"><g class="chip" style="animation-delay:0.9s">
        <rect width="86" height="28" rx="14" fill="#3FB950" fill-opacity="0.10" stroke="#3FB950" stroke-opacity="0.55" filter="url(#softGlow)"/>
        <text x="43" y="19" fill="#E6EDF3">FastAPI</text>
      </g></g>
      <g transform="translate(924,0)"><g class="chip" style="animation-delay:1.0s">
        <rect width="110" height="28" rx="14" fill="#FF4D9D" fill-opacity="0.10" stroke="#FF4D9D" stroke-opacity="0.55" filter="url(#softGlow)"/>
        <text x="55" y="19" fill="#E6EDF3">TensorFlow</text>
      </g></g>
      <g transform="translate(1048,0)"><g class="chip" style="animation-delay:1.1s">
        <rect width="86" height="28" rx="14" fill="#FF4D9D" fill-opacity="0.10" stroke="#FF4D9D" stroke-opacity="0.55" filter="url(#softGlow)"/>
        <text x="43" y="19" fill="#E6EDF3">PyTorch</text>
      </g></g>
    </g>

    <!-- Row 2 -->
    <g transform="translate(327,442)">
      <g transform="translate(0,0)"><g class="chip" style="animation-delay:1.2s">
        <rect width="102" height="28" rx="14" fill="#7C3AED" fill-opacity="0.10" stroke="#7C3AED" stroke-opacity="0.55" filter="url(#softGlow)"/>
        <text x="51" y="19" fill="#E6EDF3">LangChain</text>
      </g></g>
      <g transform="translate(116,0)"><g class="chip" style="animation-delay:1.3s">
        <rect width="110" height="28" rx="14" fill="#7C3AED" fill-opacity="0.10" stroke="#7C3AED" stroke-opacity="0.55" filter="url(#softGlow)"/>
        <text x="55" y="19" fill="#E6EDF3">LlamaIndex</text>
      </g></g>
      <g transform="translate(240,0)"><g class="chip" style="animation-delay:1.4s">
        <rect width="78" height="28" rx="14" fill="#00E5FF" fill-opacity="0.10" stroke="#00E5FF" stroke-opacity="0.55" filter="url(#softGlow)"/>
        <text x="39" y="19" fill="#E6EDF3">OpenAI</text>
      </g></g>
      <g transform="translate(332,0)"><g class="chip" style="animation-delay:1.5s">
        <rect width="54" height="28" rx="14" fill="#FF4D9D" fill-opacity="0.10" stroke="#FF4D9D" stroke-opacity="0.55" filter="url(#softGlow)"/>
        <text x="27" y="19" fill="#E6EDF3">RAG</text>
      </g></g>
      <g transform="translate(400,0)"><g class="chip" style="animation-delay:1.6s">
        <rect width="102" height="28" rx="14" fill="#58A6FF" fill-opacity="0.10" stroke="#58A6FF" stroke-opacity="0.55" filter="url(#softGlow)"/>
        <text x="51" y="19" fill="#E6EDF3">Vector DB</text>
      </g></g>
      <g transform="translate(516,0)"><g class="chip" style="animation-delay:1.7s">
        <rect width="78" height="28" rx="14" fill="#58A6FF" fill-opacity="0.10" stroke="#58A6FF" stroke-opacity="0.55" filter="url(#softGlow)"/>
        <text x="39" y="19" fill="#E6EDF3">Docker</text>
      </g></g>
      <g transform="translate(608,0)"><g class="chip" style="animation-delay:1.8s">
        <rect width="110" height="28" rx="14" fill="#58A6FF" fill-opacity="0.10" stroke="#58A6FF" stroke-opacity="0.55" filter="url(#softGlow)"/>
        <text x="55" y="19" fill="#E6EDF3">Kubernetes</text>
      </g></g>
      <g transform="translate(732,0)"><g class="chip" style="animation-delay:1.9s">
        <rect width="54" height="28" rx="14" fill="#3FB950" fill-opacity="0.10" stroke="#3FB950" stroke-opacity="0.55" filter="url(#softGlow)"/>
        <text x="27" y="19" fill="#E6EDF3">AWS</text>
      </g></g>
      <g transform="translate(800,0)"><g class="chip" style="animation-delay:2.0s">
        <rect width="54" height="28" rx="14" fill="#3FB950" fill-opacity="0.10" stroke="#3FB950" stroke-opacity="0.55" filter="url(#softGlow)"/>
        <text x="27" y="19" fill="#E6EDF3">Git</text>
      </g></g>
      <g transform="translate(868,0)"><g class="chip" style="animation-delay:2.1s">
        <rect width="78" height="28" rx="14" fill="#E6EDF3" fill-opacity="0.10" stroke="#E6EDF3" stroke-opacity="0.4" filter="url(#softGlow)"/>
        <text x="39" y="19" fill="#E6EDF3">GitHub</text>
      </g></g>
    </g>
  </g>

  <!-- top hairline accent -->
  <rect x="0" y="0" width="1600" height="2" fill="url(#textGrad)" opacity="0.6"/>
</g>
</svg>
